<svg xmlns="http://www.w3.org/2000/svg" viewBox="-137 -70 264 71">
<!--
  Fontezzi - https://fontezzi.com
  
  This SVG contains paths derived from the following fonts:
  - Exo 2
  
  Fonts used in this file are subject to their individual licenses.
  For font license details, visit the font provider (e.g. https://fonts.google.com/).
  Note: This SVG file is considered rendered output/artwork created using the fonts,
  not a font file itself. You may use, modify, and distribute this SVG freely.
-->
  <path d="M-89.85,-68.25q-0.85,-0.75,-2.05,-0.75l-9.2,0q-1.2,0,-2.1,0.55q-0.9,0.55,-1.3,1.75l-31.6,66.7l9.3,0l9.797,-21.5l28.4291,0l3.7739,21.5l8.8,0l-12.9,-66.4q-0.1,-1.1,-0.95,-1.85zm-0.0755,39.05l-4.7745,-27.2l-0.4,-3q-0.2,-1.5,-0.4,-2.9l-3,0q-0.6,1.3,-1.3,2.9q-0.7,1.6,-1.3,3l-12.394,27.2l23.5685,0z" fill="#ffffff" fill-opacity="1" fill-rule="evenodd"/>
  <path d="M-57.2,-13.2l8,-56.8l-8.5,0l-8.2,58.3q-0.8,6,2.1,9.3q2.9,3.3,8.5,3.3q1.1,0,2.8,-0.15q1.7,-0.15,3.4,-0.4q1.7,-0.25,2.6,-0.65l-0.3,-6.6l-4.9,0q-3.4,0,-4.7,-1.45q-1.3,-1.45,-0.8,-4.85z" fill="#ffffff" fill-opacity="1" fill-rule="evenodd"/>
  <path d="M-27.9,-13.2l8,-56.8l-8.5,0l-8.2,58.3q-0.8,6,2.1,9.3q2.9,3.3,8.5,3.3q1.1,0,2.8,-0.15q1.7,-0.15,3.4,-0.4q1.7,-0.25,2.6,-0.65l-0.3,-6.6l-4.9,0q-3.4,0,-4.7,-1.45q-1.3,-1.45,-0.8,-4.85z" fill="#ffffff" fill-opacity="1" fill-rule="evenodd"/>
  <path d="M10.8,-14.3l7.8,-54.7l-8.9,0l-7.6,54.7q-0.5,3.7,-2.85,5.7q-2.35,2,-6.35,2l-4.7,0l-1.7,6.2q1.1,0.3,2.75,0.6q1.65,0.3,3.4,0.5q1.75,0.2,3.15,0.2q6.3,0,10.15,-3.85q3.85,-3.85,4.85,-11.35z" fill="#ffffff" fill-opacity="1" fill-rule="evenodd"/>
  <path d="M43,-68.6q-0.6,-0.8,-2,-0.8l-4,0q-2.4,0,-2.7,2.5l-0.8,5.6q-0.1508,1.4072,0.4815,2.1072q0.6257,0.6928,2.0185,0.6928l3.9,0q2.4,0,2.8,-2.4l0.7,-5.7q0.2,-1.2,-0.4,-2zm-9.3,68.6l6.8,-48.7l-8.4,0l-6.8,48.7l8.4,0z" fill="#ffffff" fill-opacity="1" fill-rule="evenodd"/>
  <path d="M92.8,-46.25q-2.9,-3.65,-9.3,-3.65q-5.2,0,-10.5,3.05q-4.9941,2.874,-10.7874,8.7224l0.5874,-10.5724l-6.5,0l-6.9,48.7l8.5,0l4.419,-31.8539q4.1342,-3.7439,7.081,-6.0461q3.2,-2.5,5.8,-3.65q2.6,-1.15,5.2,-1.15q4,0,5.25,2q1.25,2,0.65,6.4l-4.8,34.3l8.2,0l4.4284,-31.6063q4.3846,-4.0816,7.4216,-6.4437q3.15,-2.45,5.65,-3.55q2.5,-1.1,5,-1.1q3.5,0,5,1.8q1.5,1.8,0.9,6.6l-4.8,34.3l8.4,0l5.1,-36.4q0.9,-6.2,-2,-9.85q-2.9,-3.65,-9.4,-3.65q-5.2,0,-10.35,3q-4.602,2.6809,-10.0429,8.1568q0.1218,-4.5756,-2.2071,-7.5068z" fill="#ffffff" fill-opacity="1" fill-rule="evenodd"/>
</svg>